<svg width="44" height="46" viewBox="0 0 44 46" fill="none" xmlns="http://www.w3.org/2000/svg">
<path d="M43.4922 32.3516C43.3456 32.1825 43.1644 32.0468 42.9609 31.9538C42.7574 31.8608 42.5363 31.8126 42.3125 31.8125H39.1875V28.6875C39.1875 26.9656 37.7859 25.5625 36.0625 25.5625H29.8125C28.0891 25.5625 26.6875 26.9656 26.6875 28.6875V31.8125H23.5625C23.3386 31.8127 23.1174 31.861 22.9138 31.9541C22.7102 32.0472 22.5289 32.1829 22.3823 32.3521C22.2356 32.5212 22.127 32.7199 22.0638 32.9346C22.0005 33.1494 21.9841 33.3752 22.0156 33.5969L23.5781 44.5344C23.6315 44.9066 23.8173 45.247 24.1015 45.4933C24.3856 45.7395 24.749 45.8751 25.125 45.875H40.75C41.126 45.8751 41.4894 45.7395 41.7735 45.4933C42.0577 45.247 42.2435 44.9066 42.2969 44.5344L43.8594 33.5969C43.8909 33.3751 43.8744 33.1492 43.8111 32.9343C43.7478 32.7195 43.639 32.5207 43.4922 32.3516ZM29.8125 28.6875H36.0625V31.8125H29.8125V28.6875ZM39.3953 42.75H26.4797L25.3641 34.9375H40.5109L39.3953 42.75ZM12.625 30.25H15.75V45.875H12.625V30.25Z" fill="current"/>
<path d="M23.2188 26.9297L20.2406 23.2047L17.9875 17.5719C17.6421 16.7001 17.042 15.9527 16.2655 15.427C15.489 14.9013 14.5721 14.6219 13.6344 14.625H4.8125C2.22812 14.625 0.125 16.7281 0.125 19.3125V30.25C0.125 31.9734 1.52656 33.375 3.25 33.375H4.8125V45.875H7.9375V30.25H3.25V19.3125C3.25 18.8981 3.41462 18.5007 3.70765 18.2076C4.00067 17.9146 4.3981 17.75 4.8125 17.75H13.6344C14.2766 17.75 14.8469 18.1359 15.0844 18.7328L17.6547 24.9766L20.7797 28.8828L23.2188 26.9297ZM3.25 6.8125C3.25 3.36562 6.05312 0.5625 9.5 0.5625C12.9469 0.5625 15.75 3.36562 15.75 6.8125C15.75 10.2594 12.9469 13.0625 9.5 13.0625C6.05312 13.0625 3.25 10.2594 3.25 6.8125ZM6.375 6.8125C6.375 8.53594 7.77656 9.9375 9.5 9.9375C11.2234 9.9375 12.625 8.53594 12.625 6.8125C12.625 5.08906 11.2234 3.6875 9.5 3.6875C7.77656 3.6875 6.375 5.08906 6.375 6.8125Z" fill="current"/>
</svg>
