<svg width="34" height="34" viewBox="0 0 34 34" fill="none" xmlns="http://www.w3.org/2000/svg">
<path d="M28.9936 6.98532C26.765 4.31368 23.7085 2.46226 20.3085 1.7245C16.9084 0.986735 13.3595 1.40484 10.224 2.91254C7.08849 4.42024 4.54589 6.93129 2.99916 10.0477C1.45243 13.1641 0.990044 16.7076 1.6853 20.1166M32.2082 13.4041C33.0287 16.8661 32.6431 20.5044 31.1152 23.7175C29.5873 26.9306 27.0086 29.526 23.8054 31.0747C20.6023 32.6233 16.9665 33.0324 13.4993 32.2342C10.0321 31.4361 6.94107 29.4786 4.73738 26.6853" stroke="current" stroke-linecap="round"/>
<path d="M29.7601 3.45825V7.62492H25.5934M8.40592 26.3749H4.23926V30.5416" stroke="current" stroke-linecap="round" stroke-linejoin="round"/>
<path d="M17 8.6665V25.3332" stroke="current" stroke-linecap="round"/>
<path d="M20.7706 13.15C20.5206 12.0458 19.0977 10.8167 17.0123 10.8167C14.9289 10.8167 13.3248 12.1708 13.3248 13.8792C13.3248 17.7625 21.056 15.7667 21.056 20.275C21.056 21.9021 19.0977 23.2833 17.0144 23.2833C14.931 23.2833 13.4852 22.0021 13.0581 20.6292" stroke="current" stroke-linecap="round" stroke-linejoin="round"/>
</svg>
