<svg width="45" height="50" viewBox="0 0 45 50" fill="none" xmlns="http://www.w3.org/2000/svg">
<path d="M26.8623 5.94168L36.6748 11.6083C36.9706 11.2958 37.3165 11.025 37.7061 10.7958C38.774 10.1825 40.0416 10.0174 41.2311 10.3369C42.4205 10.6563 43.4349 11.4341 44.0519 12.5C44.4229 13.1474 44.6327 13.8745 44.6639 14.62C44.695 15.3655 44.5464 16.1075 44.2306 16.7836C43.9148 17.4596 43.4412 18.0498 42.8495 18.5045C42.2579 18.9591 41.5656 19.2648 40.8311 19.3958V30.6042C41.5738 30.7378 42.2727 31.0505 42.8673 31.5152C43.462 31.9799 43.9343 32.5825 44.2435 33.2709C44.5526 33.9593 44.6893 34.7127 44.6416 35.4659C44.5939 36.219 44.3633 36.9492 43.9697 37.5931C43.5762 38.237 43.0316 38.7752 42.3831 39.1612C41.7346 39.5471 41.0018 39.7692 40.2482 39.808C39.4945 39.8469 38.7428 39.7014 38.058 39.3841C37.3733 39.0669 36.7762 38.5875 36.3186 37.9875L26.6811 43.55C26.9781 44.2563 27.096 45.0251 27.0241 45.788C26.9523 46.5508 26.6929 47.2841 26.2692 47.9225C25.8454 48.5609 25.2704 49.0846 24.5954 49.4471C23.9203 49.8096 23.166 49.9995 22.3998 50C21.6649 50.0017 20.9401 49.8288 20.2851 49.4956C19.6301 49.1623 19.0636 48.6782 18.6323 48.0832C18.201 47.4881 17.9173 46.7991 17.8044 46.073C17.6915 45.3468 17.7528 44.6041 17.9831 43.9063L8.2373 38.2792C7.75636 38.8153 7.15734 39.2323 6.48757 39.4972C5.81779 39.7621 5.09559 39.8676 4.37802 39.8055C3.66045 39.7433 2.96716 39.5152 2.35291 39.1391C1.73866 38.763 1.22026 38.2492 0.83868 37.6383C0.457095 37.0274 0.222769 36.3362 0.15421 35.6192C0.0856498 34.9022 0.184734 34.1791 0.443636 33.507C0.702539 32.8349 1.11417 32.2322 1.64601 31.7465C2.17786 31.2608 2.81535 30.9054 3.50813 30.7083L3.51022 19.2917C2.82997 19.0991 2.20259 18.7539 1.67579 18.2824C1.14899 17.8109 0.736641 17.2255 0.470095 16.5707C0.203548 15.9159 0.0898239 15.2089 0.13757 14.5035C0.185316 13.7981 0.393275 13.1129 0.745633 12.5C1.09643 11.8942 1.5795 11.3754 2.1588 10.9823C2.7381 10.5892 3.39868 10.332 4.09126 10.2298C4.78383 10.1277 5.49054 10.1833 6.15865 10.3924C6.82676 10.6015 7.43904 10.9587 7.9498 11.4375L17.8769 5.70418C17.7162 5.02247 17.7119 4.31322 17.8644 3.62962C18.0168 2.94602 18.3221 2.30581 18.7572 1.757C19.1924 1.20819 19.7462 0.765021 20.377 0.460734C21.0079 0.156446 21.6994 -0.00106595 22.3998 9.48131e-06C23.1211 -0.00144868 23.8329 0.165303 24.4785 0.487022C25.1241 0.808741 25.6858 1.27656 26.119 1.85334C26.5522 2.43011 26.8449 3.09994 26.9739 3.80964C27.103 4.51933 27.0647 5.24934 26.8623 5.94168ZM25.8352 7.77501C25.7311 7.88751 25.6206 7.99584 25.5081 8.09793L38.5873 30.7542L38.7311 30.7125V19.2813C38.1358 19.1088 37.5811 18.8189 37.0998 18.4285C36.6185 18.038 36.2203 17.5551 35.9288 17.0082C35.6373 16.4613 35.4583 15.8615 35.4025 15.2443C35.3467 14.6271 35.4152 14.0049 35.604 13.4146L25.8352 7.77501ZM19.0019 7.81459C18.935 7.74235 18.8703 7.66801 18.8081 7.59168L9.11647 13.1875C9.35607 13.8233 9.45312 14.5039 9.40077 15.1812C9.34841 15.8586 9.14794 16.5162 8.8135 17.1076C8.47906 17.699 8.01882 18.2097 7.46531 18.6037C6.91179 18.9976 6.27851 19.2652 5.61022 19.3875V30.6083L5.81855 30.65L19.0019 7.81459ZM23.6686 9.11459C22.7074 9.38683 21.6842 9.34301 20.7498 8.98959L7.70813 31.5708C8.44867 32.1725 8.98678 32.987 9.2498 33.9042H35.5436C35.767 33.1155 36.1946 32.3997 36.7831 31.8292L23.6686 9.11459ZM25.6456 42.0313L35.5186 36.3313C35.4904 36.2231 35.466 36.114 35.4456 36.0042H9.35397C9.32688 36.15 9.29147 36.2958 9.25188 36.4375L19.0769 42.1104C19.509 41.6662 20.0261 41.3133 20.5972 41.0728C21.1684 40.8323 21.7821 40.7091 22.4019 40.7104C23.6665 40.7104 24.8102 41.2146 25.6477 42.0313" fill="#111111"/>
</svg>
