<svg width="40" height="37" viewBox="0 0 40 37" fill="none" xmlns="http://www.w3.org/2000/svg">
<path d="M0.770996 15.7146L9.66266 0.210449L18.5585 15.7146H0.770996ZM9.70225 36.75C7.65086 36.75 5.91614 36.0417 4.49808 34.625C3.08002 33.2084 2.3703 31.4792 2.36891 29.4375C2.36891 27.3653 3.07864 25.6223 4.49808 24.2084C5.91475 22.7945 7.64947 22.0875 9.70225 22.0875C11.755 22.0875 13.4897 22.7959 14.9064 24.2125C16.3231 25.6292 17.0321 27.3639 17.0335 29.4167C17.0349 31.4695 16.3266 33.2042 14.9085 34.6209C13.4904 36.0375 11.7557 36.7466 9.70433 36.7479M9.70433 34.6646C11.1696 34.6646 12.4106 34.157 13.4272 33.1417C14.4439 32.125 14.9522 30.8834 14.9522 29.4167C14.9522 27.95 14.4439 26.7084 13.4272 25.6917C12.4106 24.675 11.1696 24.1674 9.70433 24.1688C8.23905 24.1702 6.99739 24.6778 5.97933 25.6917C4.96127 26.7056 4.45294 27.9473 4.45433 29.4167C4.45572 30.8861 4.96405 32.1278 5.97933 33.1417C6.99461 34.1556 8.23627 34.6632 9.70433 34.6646ZM4.36683 13.6313H15.0002L9.66266 4.43753L4.36683 13.6313ZM23.1668 36.75V22.0875H37.8314V36.75H23.1668ZM25.2502 34.6667H35.7481V24.1709H25.2502V34.6667ZM30.5002 15.7167C29.2141 14.6917 28.0363 13.7396 26.9668 12.8604C25.8974 11.9813 24.9766 11.1278 24.2043 10.3C23.4321 9.47225 22.8328 8.64934 22.4064 7.83128C21.9786 7.01462 21.7647 6.15906 21.7647 5.26462C21.7647 4.02295 22.1717 2.99725 22.9856 2.18753C23.7981 1.37781 24.8335 0.972949 26.0918 0.972949C26.9224 0.972949 27.6988 1.17642 28.421 1.58337C29.1432 1.99031 29.8356 2.60281 30.4981 3.42087C31.1606 2.6292 31.8668 2.02364 32.6168 1.6042C33.3668 1.18476 34.1432 0.974338 34.946 0.972949C36.1682 0.972949 37.1884 1.39934 38.0064 2.25212C38.8245 3.10489 39.2335 4.14864 39.2335 5.38337C39.2335 6.25142 39.0196 7.08753 38.5918 7.8917C38.1641 8.69587 37.5647 9.50559 36.7939 10.3209C36.0231 11.1361 35.1022 11.9827 34.0314 12.8604C32.9606 13.7382 31.7828 14.6903 30.4981 15.7167M30.4981 13.0125C32.9189 11.1431 34.6328 9.62712 35.6397 8.46462C36.6467 7.30212 37.1502 6.27017 37.1502 5.36878C37.1502 4.70212 36.9397 4.15073 36.5189 3.71462C36.0981 3.27573 35.5682 3.05628 34.9293 3.05628C34.4807 3.05628 34.0432 3.1917 33.6168 3.46253C33.1904 3.73337 32.6016 4.24587 31.8502 5.00003L30.4981 6.32503L29.1481 5.00003C28.3689 4.21948 27.7745 3.70073 27.3647 3.44378C26.955 3.18684 26.5231 3.05767 26.0689 3.05628C25.4022 3.05628 24.8654 3.25559 24.4585 3.6542C24.0516 4.05281 23.8481 4.59726 23.8481 5.28753C23.8481 6.24448 24.3516 7.3035 25.3585 8.46462C26.3654 9.62712 28.0786 11.1431 30.4981 13.0125Z" fill="#111111"/>
</svg>
