<svg width="40" height="42" viewBox="0 0 40 42" fill="none" xmlns="http://www.w3.org/2000/svg">
<path d="M23.5837 32.3958C32.2534 32.3958 39.2816 25.3676 39.2816 16.6979C39.2816 8.0282 32.2534 1 23.5837 1C14.9139 1 7.88574 8.0282 7.88574 16.6979C7.88574 25.3676 14.9139 32.3958 23.5837 32.3958Z" stroke="current" stroke-linecap="round" stroke-linejoin="round"/>
<path d="M23.5833 28.7499C25.7349 28.7499 27.4792 27.0057 27.4792 24.8541C27.4792 22.7025 25.7349 20.9583 23.5833 20.9583C21.4317 20.9583 19.6875 22.7025 19.6875 24.8541C19.6875 27.0057 21.4317 28.7499 23.5833 28.7499Z" stroke="current" stroke-linecap="round" stroke-linejoin="round"/>
<path d="M32.9583 18.2604C35.1099 18.2604 36.8542 16.5162 36.8542 14.3646C36.8542 12.213 35.1099 10.4688 32.9583 10.4688C30.8067 10.4688 29.0625 12.213 29.0625 14.3646C29.0625 16.5162 30.8067 18.2604 32.9583 18.2604Z" stroke="current" stroke-linecap="round" stroke-linejoin="round"/>
<path d="M20.3232 18.6042C23.24 18.6042 25.6045 16.2398 25.6045 13.323C25.6045 10.4062 23.24 8.04175 20.3232 8.04175C17.4065 8.04175 15.042 10.4062 15.042 13.323C15.042 16.2398 17.4065 18.6042 20.3232 18.6042Z" stroke="current" stroke-linecap="round" stroke-linejoin="round"/>
<path d="M7.04167 41.1876C10.3784 41.1876 13.0833 38.4826 13.0833 35.1459C13.0833 31.8092 10.3784 29.1042 7.04167 29.1042C3.70495 29.1042 1 31.8092 1 35.1459C1 38.4826 3.70495 41.1876 7.04167 41.1876Z" stroke="current" stroke-linecap="round" stroke-linejoin="round"/>
<path d="M36.8231 14.8229L39.1877 14.9792M25.6043 13.6875L29.0627 14.0833M17.5522 17.8125L10.3335 30.0833M13.7085 24.3438L19.6981 24.6458" stroke="current" stroke-linecap="round" stroke-linejoin="round"/>
</svg>
