<svg width="46" height="43" viewBox="0 0 46 43" fill="none" xmlns="http://www.w3.org/2000/svg">
<path d="M6.33351 17.7916C6.33364 16.0068 6.79233 14.252 7.66559 12.6955C8.53886 11.139 9.7974 9.83298 11.3205 8.90268C12.8436 7.97239 14.5802 7.44904 16.3638 7.38283C18.1473 7.31663 19.9179 7.70978 21.5058 8.52459C23.0937 9.3394 24.4456 10.5485 25.4319 12.036C26.4181 13.5235 27.0057 15.2395 27.1381 17.0193C27.2706 18.7991 26.9435 20.5831 26.1883 22.2002C25.433 23.8173 24.275 25.2132 22.8252 26.2541C25.8332 27.4527 28.4253 29.5044 30.2827 32.1568C32.14 34.8092 33.1816 37.9467 33.2793 41.1833C33.29 41.391 33.259 41.5988 33.1882 41.7945C33.1175 41.9901 33.0083 42.1697 32.8673 42.3226C32.7262 42.4755 32.556 42.5987 32.3667 42.6849C32.1773 42.7712 31.9727 42.8188 31.7647 42.8249C31.5568 42.831 31.3497 42.7955 31.1556 42.7205C30.9616 42.6455 30.7844 42.5325 30.6346 42.3881C30.4848 42.2437 30.3654 42.0709 30.2832 41.8797C30.2011 41.6886 30.158 41.483 30.1564 41.2749C30.0497 37.7733 28.5837 34.4508 26.0691 32.0116C23.5545 29.5724 20.1889 28.2082 16.6856 28.2082C13.1823 28.2082 9.8167 29.5724 7.30207 32.0116C4.78744 34.4508 3.32144 37.7733 3.21476 41.2749C3.1939 41.6829 3.01409 42.0665 2.71384 42.3435C2.41359 42.6205 2.0168 42.769 1.60845 42.757C1.20011 42.745 0.8127 42.5735 0.52922 42.2794C0.245739 41.9852 0.0887346 41.5918 0.0918421 41.1833C0.190258 37.9314 1.24157 34.7801 3.11525 32.1205C4.98894 29.4609 7.60248 27.4101 10.6314 26.2228C9.29949 25.2573 8.21549 23.9898 7.46837 22.5242C6.72126 21.0585 6.33233 19.4366 6.33351 17.7916ZM16.7502 10.4999C15.7926 10.4999 14.8444 10.6885 13.9598 11.055C13.0751 11.4214 12.2713 11.9585 11.5942 12.6356C10.9171 13.3127 10.38 14.1165 10.0136 15.0012C9.64711 15.8859 9.45851 16.834 9.45851 17.7916C9.45851 18.7491 9.64711 19.6973 10.0136 20.582C10.38 21.4666 10.9171 22.2705 11.5942 22.9476C12.2713 23.6247 13.0751 24.1618 13.9598 24.5282C14.8444 24.8946 15.7926 25.0833 16.7502 25.0833C18.684 25.0833 20.5387 24.315 21.9062 22.9476C23.2736 21.5801 24.0418 19.7255 24.0418 17.7916C24.0418 15.8577 23.2736 14.0031 21.9062 12.6356C20.5387 11.2681 18.684 10.4999 16.7502 10.4999ZM38.1043 0.083252C38.5187 0.083252 38.9162 0.247872 39.2092 0.540898C39.5022 0.833923 39.6668 1.23135 39.6668 1.64575V6.33325H44.3543C44.7687 6.33325 45.1662 6.49787 45.4592 6.7909C45.7522 7.08392 45.9168 7.48135 45.9168 7.89575C45.9168 8.31015 45.7522 8.70758 45.4592 9.00061C45.1662 9.29363 44.7687 9.45825 44.3543 9.45825H39.6668V14.1458C39.6668 14.5602 39.5022 14.9576 39.2092 15.2506C38.9162 15.5436 38.5187 15.7083 38.1043 15.7083C37.6899 15.7083 37.2925 15.5436 36.9995 15.2506C36.7065 14.9576 36.5418 14.5602 36.5418 14.1458V9.45825H31.8543C31.4399 9.45825 31.0425 9.29363 30.7495 9.00061C30.4565 8.70758 30.2918 8.31015 30.2918 7.89575C30.2918 7.48135 30.4565 7.08392 30.7495 6.7909C31.0425 6.49787 31.4399 6.33325 31.8543 6.33325H36.5418V1.64575C36.5418 1.23135 36.7065 0.833923 36.9995 0.540898C37.2925 0.247872 37.6899 0.083252 38.1043 0.083252Z" fill="#111111"/>
</svg>
