<svg width="40" height="33" viewBox="0 0 40 33" fill="none" xmlns="http://www.w3.org/2000/svg">
<path d="M24.5 8V8.5H25H30H30.5V8V3V2.5H30H25H24.5V3V8ZM8 1.75C8 1.55109 8.07902 1.36032 8.21967 1.21967C8.36032 1.07902 8.55109 1 8.75 1H16.25C16.4489 1 16.6397 1.07902 16.7803 1.21967C16.921 1.36032 17 1.55109 17 1.75V9.25C17 9.44891 16.921 9.63968 16.7803 9.78033C16.6397 9.92098 16.4489 10 16.25 10H8.75C8.55109 10 8.36032 9.92098 8.21967 9.78033C8.07902 9.63968 8 9.44891 8 9.25V1.75ZM23.2197 1.21967C23.3603 1.07902 23.5511 1 23.75 1H31.25C31.4489 1 31.6397 1.07902 31.7803 1.21967C31.921 1.36032 32 1.55109 32 1.75V9.25C32 9.44891 31.921 9.63968 31.7803 9.78033C31.6397 9.92098 31.4489 10 31.25 10H23.75C23.5511 10 23.3603 9.92098 23.2197 9.78033C23.079 9.63968 23 9.44891 23 9.25V1.75C23 1.55109 23.079 1.36032 23.2197 1.21967ZM11.4142 24.4142C11.0391 24.7893 10.5304 25 10 25C9.46957 25 8.96086 24.7893 8.58579 24.4142C8.21071 24.0391 8 23.5304 8 23C8 22.4696 8.21071 21.9609 8.58579 21.5858C8.96086 21.2107 9.46957 21 10 21C10.5304 21 11.0391 21.2107 11.4142 21.5858C11.7893 21.9609 12 22.4696 12 23C12 23.5304 11.7893 24.0391 11.4142 24.4142ZM22 23C22 23.5304 21.7893 24.0391 21.4142 24.4142C21.0391 24.7893 20.5304 25 20 25C19.4696 25 18.9609 24.7893 18.5858 24.4142C18.2107 24.0391 18 23.5304 18 23C18 22.4696 18.2107 21.9609 18.5858 21.5858C18.9609 21.2107 19.4696 21 20 21C20.5304 21 21.0391 21.2107 21.4142 21.5858C21.7893 21.9609 22 22.4696 22 23ZM31.4142 24.4142C31.0391 24.7893 30.5304 25 30 25C29.4696 25 28.9609 24.7893 28.5858 24.4142C28.2107 24.0391 28 23.5304 28 23C28 22.4696 28.2107 21.9609 28.5858 21.5858C28.9609 21.2107 29.4696 21 30 21C30.5304 21 31.0391 21.2107 31.4142 21.5858C31.7893 21.9609 32 22.4696 32 23C32 23.5304 31.7893 24.0391 31.4142 24.4142ZM0.5 23C0.5 20.4804 1.50089 18.0641 3.28249 16.2825C5.06408 14.5009 7.48044 13.5 10 13.5H30C32.5196 13.5 34.9359 14.5009 36.7175 16.2825C38.4991 18.0641 39.5 20.4804 39.5 23C39.5 25.5196 38.4991 27.9359 36.7175 29.7175C34.9359 31.4991 32.5196 32.5 30 32.5H10C7.48044 32.5 5.06408 31.4991 3.28249 29.7175C1.50089 27.9359 0.5 25.5196 0.5 23ZM10 15C7.87827 15 5.84344 15.8429 4.34315 17.3431C2.84285 18.8434 2 20.8783 2 23C2 25.1217 2.84285 27.1566 4.34315 28.6569C5.84344 30.1571 7.87827 31 10 31H30C32.1217 31 34.1566 30.1571 35.6569 28.6569C37.1571 27.1566 38 25.1217 38 23C38 20.8783 37.1571 18.8434 35.6569 17.3431C34.1566 15.8429 32.1217 15 30 15H10Z" fill="current" stroke="black"/>
</svg>
